
<svg xmlns="http://www.w3.org/2000/svg" version="1.1" xmlns:xlink="http://www.w3.org/1999/xlink" preserveAspectRatio="none" x="0px" y="0px" width="100px" height="100px" viewBox="0 0 100 100">
<defs>
<g id="Layer0_0_FILL">
<path fill="#000000" stroke="none" d="
M 73.6 86.25
Q 73.3 85.95 73 85.75 71.75 84.8 70.15 84.85 68.05 84.85 66.65 86.25 65.2 87.7 65.25 89.75 65.2 91.75 66.65 93.2 68.05 94.6 70.15 94.65 71.75 94.6 73 93.7 73.3 93.45 73.6 93.15 75 91.75 75.05 89.75 75.05 87.65 73.6 86.25
M 60.6 75.35
Q 58.55 75.35 57.15 76.75 55.7 78.2 55.7 80.2 55.7 82.25 57.1 83.65 58.55 85.1 60.65 85.1 62.7 85.1 64.1 83.65 65.55 82.25 65.55 80.2 65.5 78.15 64.1 76.7 62.7 75.3 60.6 75.35
M 35.35 86.25
Q 33.9 84.8 31.9 84.85 29.85 84.85 28.4 86.3 27 87.7 27 89.75 26.95 91.75 28.4 93.2 29.85 94.65 31.9 94.6 33.9 94.6 35.35 93.2 36.8 91.75 36.8 89.75 36.8 87.7 35.35 86.25
M 38 76.7
Q 36.55 78.15 36.55 80.2 36.55 81.65 37.25 82.75 37.45 83.05 37.65 83.3
L 47.55 93.2
Q 47.55 93.25 47.65 93.35 49 94.6 51 94.6 53 94.6 54.45 93.15 55.9 91.75 55.85 89.75 55.9 88.15 55 86.9
L 45.05 76.85
Q 44.95 76.75 44.9 76.7 43.45 75.25 41.45 75.3 39.45 75.3 38 76.7
M 10.9 85.55
Q 10.8 85.6 10.7 85.7 9.4 87.1 9.4 89.05 9.4 91.05 10.85 92.5 12.3 93.95 14.3 93.9 15.9 93.9 17.15 93
L 27.2 83.05
Q 27.25 83 27.3 82.95 28.75 81.5 28.75 79.5 28.75 77.5 27.3 76.05 25.85 74.6 23.85 74.6 22.4 74.55 21.3 75.35 20.95 75.5 20.75 75.75 20.6 75.85 20.45 76.05
L 10.9 85.55
M 7.85 70.6
Q 7.9 72.65 9.3 74.1 10.7 75.55 12.8 75.5 14.85 75.55 16.25 74.1 17.7 72.65 17.7 70.6 17.65 68.55 16.25 67.1 14.85 65.7 12.75 65.7 10.7 65.7 9.3 67.15 7.85 68.55 7.85 70.6
M 27.2 61.1
Q 27.15 59.05 25.75 57.6 24.35 56.2 22.25 56.2 20.25 56.2 18.8 57.65 17.35 59.1 17.35 61.1 17.4 63.15 18.8 64.55 20.25 66 22.3 66 24.35 66.05 25.75 64.6 27.2 63.15 27.2 61.1
M 9.3 48
Q 9.25 48.05 9.15 48.15 7.85 49.55 7.85 51.45 7.85 53.5 9.3 54.95 10.7 56.4 12.7 56.35 14.3 56.35 15.55 55.45
L 25.65 45.5
Q 25.65 45.45 25.75 45.4 27.2 43.95 27.2 41.95 27.2 39.95 25.75 38.5 24.3 37.05 22.3 37.05 20.85 37 19.7 37.8 19.4 37.95 19.15 38.15 19 38.3 18.85 38.5
L 9.3 48
M 17.65 32.4
Q 17.6 30.35 16.15 28.9 14.75 27.5 12.75 27.5 10.7 27.5 9.3 28.95 7.85 30.35 7.85 32.4 7.85 34.4 9.25 35.8 10.7 37.25 12.75 37.25 14.75 37.25 16.2 35.85 17.65 34.4 17.65 32.4
M 35.3 9.8
Q 33.9 8.4 31.85 8.35 29.8 8.35 28.35 9.8 26.95 11.25 26.95 13.25 26.95 15.3 28.35 16.7 29.8 18.15 31.85 18.15 33.9 18.2 35.3 16.75 36.75 15.3 36.75 13.25 36.75 11.25 35.3 9.8
M 44.85 19.3
Q 43.4 17.9 41.35 17.85 39.3 17.85 37.85 19.3 36.45 20.75 36.45 22.7 36.45 24.8 37.9 26.2 39.3 27.65 41.35 27.65 43.4 27.7 44.8 26.25 46.25 24.8 46.25 22.75 46.25 20.75 44.85 19.3
M 64.8 20.3
Q 64.55 20 64.3 19.7
L 64 19.35
Q 63.85 19.25 63.75 19.1
L 54.35 9.75
Q 52.9 8.35 51 8.4 49 8.35 47.55 9.8 46.1 11.25 46.1 13.3 46.1 14.9 47 16.15
L 57 26.2
Q 57.05 26.25 57.1 26.3 58.55 27.7 60.55 27.7 62.6 27.75 64.05 26.3 65.5 24.85 65.45 22.85 65.45 21.45 64.8 20.3
M 73.6 9.75
Q 73.3 9.45 73 9.25 71.75 8.35 70.1 8.35 68.05 8.4 66.65 9.8 65.2 11.2 65.2 13.3 65.25 15.3 66.65 16.75 68.05 18.2 70.15 18.2 71.8 18.2 73 17.3 73.3 17.05 73.6 16.75 75.05 15.35 75.05 13.25 75 11.2 73.6 9.75
M 91.8 84.75
L 82.25 75.25
Q 82.1 75.05 81.9 74.95 81.7 74.7 81.35 74.55 80.25 73.75 78.8 73.8 76.8 73.8 75.35 75.25 73.9 76.7 73.9 78.7 73.9 80.75 75.35 82.2 75.45 82.2 75.45 82.25
L 85.5 92.25
Q 86.75 93.15 88.4 93.15 90.35 93.15 91.8 91.75 93.25 90.3 93.25 88.25 93.25 86.35 91.95 84.9 91.85 84.85 91.8 84.75
M 84.35 70.6
Q 84.3 72.65 85.75 74.1 87.2 75.5 89.25 75.55 91.25 75.5 92.7 74.05 94.1 72.65 94.15 70.65 94.15 68.55 92.7 67.15 91.25 65.7 89.25 65.7 87.15 65.7 85.75 67.1 84.3 68.55 84.35 70.6
M 89.2 46.6
Q 87.65 46.6 86.4 47.5
L 76.35 57.45
Q 76.35 57.55 76.25 57.55 74.8 59 74.75 61.05 74.75 63.1 76.2 64.55 77.65 65.95 79.65 65.95 81.15 65.95 82.2 65.3 82.55 65.05 82.8 64.85
L 83.15 64.5
Q 83.3 64.4 83.4 64.2
L 92.35 55.25
Q 92.5 55.1 92.7 54.95
L 92.8 54.85
Q 94.15 53.45 94.1 51.5 94.15 49.5 92.7 48.05 91.25 46.6 89.2 46.6
M 84.6 41.95
Q 84.6 39.85 83.15 38.4 81.75 36.95 79.75 37.05 77.7 37.05 76.25 38.45 74.85 39.9 74.85 41.95 74.75 43.9 76.2 45.35 77.65 46.8 79.75 46.8 81.75 46.8 83.15 45.35 84.6 43.95 84.6 41.95
M 92.7 35.85
Q 94.15 34.45 94.15 32.4 94.15 30.35 92.7 28.9 91.25 27.45 89.25 27.5 87.2 27.55 85.75 28.95 84.35 30.35 84.35 32.4 84.3 34.4 85.75 35.85 87.2 37.3 89.25 37.3 91.25 37.25 92.7 35.85
M 84.6 22.8
Q 84.6 21.3 83.75 20.15
L 83.15 19.35
Q 81.75 17.9 79.65 17.9 78.5 17.95 77.55 18.4 77.2 18.55 76.85 18.8
L 66.8 28.75
Q 66.7 28.85 66.65 28.9 66.25 29.3 65.95 29.7 65.9 29.7 65.9 29.75
L 50.85 44.6 46.7 40.4
Q 46.65 40.3 46.55 40.2
L 36.6 30.15
Q 36.25 29.85 35.9 29.65 35.7 29.4 35.6 29.25
L 25.65 19.2
Q 24.2 17.95 22.3 17.95 20.25 17.95 18.8 19.35 17.4 20.8 17.4 22.85 17.4 24.4 18.25 25.65
L 28.2 35.7
Q 28.35 35.8 28.35 35.85 28.75 36.25 29.2 36.55
L 37.3 44.8 37.35 44.8 50.9 58.45 62.1 47.25
Q 62.2 47.15 62.3 47.1
L 72.35 37.1
Q 72.6 36.8 72.8 36.55 72.9 36.45 73 36.4 73.15 36.25 73.3 36.15
L 83.3 26.15
Q 83.4 26.05 83.55 25.9 83.6 25.8 83.65 25.75
L 84.35 24.4
Q 84.6 23.65 84.6 22.8 Z"/>
</g>
</defs>

<g transform="matrix( 1, 0, 0, 1, 0,0) ">
<use xlink:href="#Layer0_0_FILL"/>
</g>
</svg>
